<?xml version="1.0" standalone="no"?>
<!DOCTYPE svg PUBLIC "-//W3C//DTD SVG 1.1//EN" "http://www.w3.org/Graphics/SVG/1.1/DTD/svg11.dtd" >
<svg xmlns="http://www.w3.org/2000/svg" xmlns:xlink="http://www.w3.org/1999/xlink" version="1.1">
<metadata>
Created by FontForge 20150318 at Mon Aug 10 08:20:04 2015
 By uniteet7
[c] Copyright 1993, 1999, 2000, Tobias Frere-Jones. Designed by Tobias Frere-Jones. Produced by The Font Bureau, Inc. All rights reserved. Cyrillic design with participation of ParaType, Inc.
</metadata>
<defs>
<font id="InterstateLightCyr" horiz-adv-x="620" >
  <font-face 
    font-family="Interstate Light Cyr"
    font-weight="400"
    font-stretch="normal"
    units-per-em="1000"
    panose-1="2 0 5 6 3 0 0 2 0 4"
    ascent="800"
    descent="-200"
    x-height="525"
    cap-height="700"
    bbox="-17 -193 1300 905"
    underline-thickness="20"
    underline-position="-113"
    unicode-range="U+0020-2265"
  />
<missing-glyph horiz-adv-x="0" 
 />
    <glyph glyph-name=".notdef" horiz-adv-x="0" 
 />
    <glyph glyph-name=".null" horiz-adv-x="0" 
 />
    <glyph glyph-name="nonmarkingreturn" horiz-adv-x="333" 
 />
    <glyph glyph-name="space" unicode=" " horiz-adv-x="260" 
 />
    <glyph glyph-name="exclam" unicode="!" horiz-adv-x="263" 
d="M170 371l-18 -183h-42l-17 183v329h77v-329zM192 50q0 -24 -18.5 -42.5t-42.5 -18.5t-42.5 18.5t-18.5 42.5q0 25 18.5 44t42.5 19t42.5 -19t18.5 -44z" />
    <glyph glyph-name="quotedbl" unicode="&#x22;" horiz-adv-x="460" 
d="M376 700l-17 -327h-59l-17 327h93zM177 700l-17 -327h-59l-17 327h93z" />
    <glyph glyph-name="numbersign" unicode="#" horiz-adv-x="552" 
d="M536 177h-108v-177h-70v177h-164v-177h-70v177h-108v65h108v216h-108v65h108v177h70v-177h164v177h70v-177h108v-65h-108v-216h108v-65zM358 242v216h-164v-216h164z" />
    <glyph glyph-name="dollar" unicode="$" horiz-adv-x="513" 
d="M500 194q0 -78 -55 -129.5t-151 -61.5v-103h-74v103q-115 11 -209 86l48 61q102 -79 201 -79q77 0 120 31.5t43 88.5q0 47 -38 76.5t-140 59.5q-123 39 -168.5 79.5t-45.5 116.5t51 121.5t139 53.5v102h74v-101q90 -6 188 -66l-46 -64q-50 31 -89.5 45.5t-91.5 14.5
q-75 0 -111 -28t-36 -73t34 -71.5t144 -61.5q124 -40 168.5 -81.5t44.5 -119.5z" />
    <glyph glyph-name="percent" unicode="%" 
d="M250 519q0 -94 -27.5 -144t-76.5 -50t-75.5 49t-26.5 143t27.5 144t76.5 50t75.5 -49t26.5 -143zM192 517q0 138 -46 138q-44 0 -44 -136q0 -138 46 -138q44 0 44 136zM503 700l-327 -700h-59l327 700h59zM576 183q0 -94 -27.5 -144t-76.5 -50t-75.5 49t-26.5 143
t27.5 144t76.5 50t75.5 -49t26.5 -143zM518 181q0 138 -46 138q-44 0 -44 -136q0 -138 46 -138q44 0 44 136z" />
    <glyph glyph-name="ampersand" unicode="&#x26;" horiz-adv-x="644" 
d="M388 559q0 39 -23.5 63t-60.5 24q-41 0 -68 -23t-27 -59q0 -47 42 -98l35 -45q102 64 102 138zM326 367l138 -178q24 47 48 123l65 -20q-24 -91 -69 -160l101 -132h-92l-56 73q-84 -84 -189 -84q-99 0 -155 48t-56 140q0 75 39.5 123t117.5 88l-25 32q-61 81 -61 140
q0 70 49.5 110t122.5 40q70 0 117 -41t47 -108q0 -106 -142 -194zM420 125l-162 212q-122 -54 -122 -158q0 -53 36.5 -87.5t101.5 -34.5q88 0 146 68z" />
    <glyph glyph-name="quotesingle" unicode="'" horiz-adv-x="257" 
d="M176 700l-17 -327h-61l-17 327h95z" />
    <glyph glyph-name="parenleft" unicode="(" horiz-adv-x="509" 
d="M381 -77l-28 -33q-47 30 -88.5 68t-82 89t-64 116.5t-23.5 135.5q0 74 23.5 141.5t64 119.5t81.5 89t89 68l28 -33q-98 -80 -150 -168.5t-52 -210.5q0 -126 51.5 -213.5t150.5 -168.5z" />
    <glyph glyph-name="parenright" unicode=")" horiz-adv-x="509" 
d="M414 308q0 -74 -23.5 -141.5t-63 -119.5t-82 -90t-89.5 -67l-28 33q98 80 150 168.5t52 210.5q0 126 -51.5 213.5t-150.5 168.5l28 33q47 -30 89 -68t82 -88.5t63.5 -116t23.5 -136.5z" />
    <glyph glyph-name="asterisk" unicode="*" horiz-adv-x="500" 
d="M276 536l129 -58l-27 -47l-116 87l15 -144h-54l14 144l-115 -87l-27 47l129 58l-129 60l27 46l115 -86l-14 144h54l-15 -144l116 86l27 -46z" />
    <glyph glyph-name="plus" unicode="+" 
d="M553 310h-207v-213h-72v213h-207v68h207v213h72v-213h207v-68z" />
    <glyph glyph-name="comma" unicode="," horiz-adv-x="310" 
d="M213 115l-65 -233h-54l15 233h104z" />
    <glyph glyph-name="hyphen" unicode="-" horiz-adv-x="322" 
d="M51 237v73h220v-73h-220z" />
    <glyph glyph-name="period" unicode="." horiz-adv-x="310" 
d="M220 54q0 -27 -19.5 -46t-45.5 -19q-27 0 -46 19t-19 46t19 47t46 20q26 0 45.5 -20t19.5 -47z" />
    <glyph glyph-name="slash" unicode="/" horiz-adv-x="425" 
d="M399 790l-299 -880h-74l299 880h74z" />
    <glyph glyph-name="zero" unicode="0" horiz-adv-x="558" 
d="M534 350q0 -170 -70.5 -265.5t-184.5 -95.5t-184.5 95.5t-70.5 265.5q0 171 70.5 266t184.5 95t184.5 -95t70.5 -266zM457 350q0 135 -48 213t-130 78t-130 -78t-48 -213t48 -213t130 -78t130 78t48 213z" />
    <glyph glyph-name="one" unicode="1" horiz-adv-x="395" 
d="M385 0h-371v69h154v491h-137v49q141 8 155 91h59v-631h140v-69z" />
    <glyph glyph-name="two" unicode="2" horiz-adv-x="528" 
d="M509 0h-484q8 130 79 210q52 60 158 125q101 67 132 102.5t31 84.5q0 57 -40 88t-115 31q-41 0 -76 -11t-54.5 -23t-49.5 -35l-45 56q109 83 228 83q102 0 165 -46.5t63 -138.5q0 -77 -37 -120t-149 -115q-91 -59 -141.5 -108.5t-58.5 -108.5h394v-74z" />
    <glyph glyph-name="three" unicode="3" horiz-adv-x="531" 
d="M508 201q0 -100 -68 -156t-188 -56q-138 0 -232 89l50 55q81 -74 185 -74q176 0 176 140q0 63 -47.5 97.5t-127.5 34.5h-49v67h50q69 0 106 32t37 89q0 122 -156 122q-83 0 -148 -58l-47 53q88 75 197 75q102 0 166.5 -46t64.5 -135q0 -108 -101 -162q57 -13 94.5 -55.5
t37.5 -111.5z" />
    <glyph glyph-name="four" unicode="4" horiz-adv-x="547" 
d="M530 167h-92v-167h-72v167h-363v65l352 468h83v-466h92v-67zM366 234v366l-276 -366h276z" />
    <glyph glyph-name="five" unicode="5" horiz-adv-x="528" 
d="M509 233q0 -122 -71 -183t-192 -61q-123 0 -221 64l38 62q88 -56 189 -56q88 0 134 45.5t46 123.5q0 70 -43.5 108.5t-123.5 38.5q-78 0 -146 -45l-77 30l24 340h401v-74h-334l-17 -225q66 44 154 44q117 0 178 -57.5t61 -154.5z" />
    <glyph glyph-name="six" unicode="6" horiz-adv-x="547" 
d="M529 216q0 -108 -72 -167.5t-186 -59.5q-113 0 -182 67t-69 209q0 57 12 114t42.5 116t75 104.5t116 76t159.5 35.5v-69q-275 -24 -330 -294q77 82 202 82q102 0 167 -55t65 -159zM452 212q0 70 -46.5 109t-128.5 39q-83 0 -131.5 -40.5t-48.5 -107.5q0 -66 49.5 -109.5
t127.5 -43.5q85 0 131.5 42t46.5 111z" />
    <glyph glyph-name="seven" unicode="7" horiz-adv-x="524" 
d="M514 700v-73q-250 -279 -256 -627h-79q11 343 245 626h-416v74h506z" />
    <glyph glyph-name="eight" unicode="8" horiz-adv-x="551" 
d="M528 197q0 -100 -68 -154t-186 -54t-184 53t-66 153q0 133 134 181q-49 18 -77.5 55.5t-28.5 92.5q0 82 59 134.5t165 52.5t164.5 -51.5t58.5 -134.5q0 -102 -106 -147q135 -46 135 -181zM423 523q0 50 -36.5 84.5t-111.5 34.5t-111 -33.5t-36 -83.5q0 -51 40.5 -84.5
t107.5 -33.5q66 0 106.5 33.5t40.5 82.5zM451 195q0 62 -47 102t-129 40t-128.5 -39t-46.5 -101q0 -63 45.5 -101t131.5 -38q85 0 129.5 37t44.5 100z" />
    <glyph glyph-name="nine" unicode="9" horiz-adv-x="547" 
d="M450 488q0 67 -49 110t-128 43q-85 0 -131.5 -42t-46.5 -111q0 -71 46.5 -109.5t128.5 -38.5t131 40.5t49 107.5zM527 435q0 -57 -12 -114.5t-42.5 -116t-75 -104t-116 -76t-159.5 -35.5v69q276 24 330 294q-77 -82 -202 -82q-102 0 -167 55t-65 159q0 108 72 167.5
t186 59.5q113 0 182 -67t69 -209z" />
    <glyph glyph-name="colon" unicode=":" horiz-adv-x="310" 
d="M220 469q0 -27 -19.5 -46t-45.5 -19q-27 0 -46 19t-19 46t19 47t46 20q26 0 45.5 -20t19.5 -47zM220 54q0 -27 -19.5 -46t-45.5 -19q-27 0 -46 19t-19 46t19 47t46 20q26 0 45.5 -20t19.5 -47z" />
    <glyph glyph-name="semicolon" unicode=";" horiz-adv-x="310" 
d="M220 469q0 -27 -19.5 -46t-45.5 -19q-27 0 -46 19t-19 46t19 47t46 20q26 0 45.5 -20t19.5 -47zM206 115l-65 -233h-54l15 233h104z" />
    <glyph glyph-name="less" unicode="&#x3c;" 
d="M534 26l-444 277v82l444 277v-81l-378 -236l378 -236v-83z" />
    <glyph glyph-name="equal" unicode="=" 
d="M533 418h-446v70h446v-70zM533 200h-446v70h446v-70z" />
    <glyph glyph-name="greater" unicode="&#x3e;" 
d="M530 303l-444 -277v81l378 236l-378 236v83l444 -277v-82z" />
    <glyph glyph-name="question" unicode="?" horiz-adv-x="561" 
d="M494 539q0 -47 -16.5 -80.5t-39 -52.5t-68.5 -48q-50 -32 -63 -61t-13 -109h-77q0 98 21 141.5t97 87.5q43 28 62 52t19 64q0 48 -39 77.5t-102 29.5q-98 0 -181 -77l-50 55q93 93 234 93q98 0 157 -44.5t59 -127.5zM315 50q0 -24 -18.5 -42.5t-42.5 -18.5t-42.5 18.5
t-18.5 42.5q0 25 18.5 44t42.5 19t42.5 -19t18.5 -44z" />
    <glyph glyph-name="at" unicode="@" horiz-adv-x="836" 
d="M779 360q0 -208 -148 -208q-73 0 -107 63q-50 -63 -130 -63q-68 0 -110.5 35t-42.5 102q0 62 45.5 96.5t116.5 34.5q66 0 111 -27v59q0 64 -103 64q-51 0 -102 -24l-22 43q62 31 131 31q148 0 148 -111v-193q0 -31 19 -48t52 -17q92 0 92 162q0 135 -88 220t-223 85
q-137 0 -224 -86t-87 -226q0 -141 87 -228.5t224 -87.5q73 0 136 31l18 -44q-76 -34 -154 -34q-157 0 -259 102.5t-102 258.5q0 157 102 259t259 102q156 0 258.5 -103t102.5 -248zM514 262v81q-48 29 -116 29q-45 0 -73 -22.5t-28 -57.5q0 -90 102 -90q74 0 115 60z" />
    <glyph glyph-name="A" unicode="A" horiz-adv-x="678" 
d="M382 700l243 -700h-82l-60 178h-289l-61 -178h-80l243 700h86zM218 249h241l-120 358z" />
    <glyph glyph-name="B" unicode="B" horiz-adv-x="626" 
d="M571 207q0 -102 -58.5 -154.5t-169.5 -52.5h-251v700h256q87 0 138.5 -44t51.5 -131q0 -107 -101 -143q134 -35 134 -175zM460 522q0 49 -29 78t-86 29h-175v-218h169q62 0 91.5 30.5t29.5 80.5zM493 203q0 65 -40 101.5t-109 36.5h-174v-270h178q145 0 145 132z" />
    <glyph glyph-name="C" unicode="C" horiz-adv-x="628" 
d="M571 599l-62 -47q-35 47 -71.5 67.5t-91.5 20.5q-90 0 -148 -80.5t-58 -208.5q0 -127 59 -209t148 -82q103 0 173 92l54 -47q-84 -116 -229 -116q-126 0 -204.5 102.5t-78.5 257.5q0 157 80.5 259.5t205.5 102.5q140 0 223 -112z" />
    <glyph glyph-name="D" unicode="D" horiz-adv-x="658" 
d="M596 355q-1 -77 -16.5 -136t-59.5 -116q-89 -103 -257 -103h-171v700h185q145 0 232 -86t87 -259zM518 352q0 135 -63 206t-184 71h-101v-558h103q245 0 245 281z" />
    <glyph glyph-name="E" unicode="E" horiz-adv-x="587" 
d="M530 71v-71h-438v700h423v-71h-345v-220h279v-71h-279v-267h360z" />
    <glyph glyph-name="F" unicode="F" horiz-adv-x="548" 
d="M503 629h-333v-232h192v-71h-192v-326h-78v700h411v-71z" />
    <glyph glyph-name="G" unicode="G" horiz-adv-x="659" 
d="M604 347v-68q0 -140 -71.5 -215t-187.5 -75q-65 0 -120 29t-91 79q-71 102 -72 252q0 157 80.5 259.5t205.5 102.5q140 0 223 -112l-62 -47q-35 47 -71.5 67.5t-91.5 20.5q-90 0 -148 -80.5t-58 -208.5q0 -127 59.5 -209t147.5 -82t134.5 53.5t46.5 155.5v6h-126v72h202z
" />
    <glyph glyph-name="H" unicode="H" horiz-adv-x="688" 
d="M596 0h-78v330h-348v-330h-78v700h78v-299h348v299h78v-700z" />
    <glyph glyph-name="I" unicode="I" horiz-adv-x="272" 
d="M175 0h-78v700h78v-700z" />
    <glyph glyph-name="J" unicode="J" horiz-adv-x="578" 
d="M491 700v-432q0 -279 -239 -279q-168 0 -222 169l74 25q42 -123 151 -123q84 0 121 50t37 161v429h78z" />
    <glyph glyph-name="K" unicode="K" horiz-adv-x="642" 
d="M355 437l244 -437h-89l-207 373l-133 -172v-201h-78v700h78v-395l305 395h85z" />
    <glyph glyph-name="L" unicode="L" horiz-adv-x="575" 
d="M516 0h-424v700h78v-629h346v-71z" />
    <glyph glyph-name="M" unicode="M" horiz-adv-x="788" 
d="M696 700v-700h-75v534l-229 -552l-225 552v-534h-75v700h87l215 -545l217 545h85z" />
    <glyph glyph-name="N" unicode="N" horiz-adv-x="688" 
d="M596 700v-700h-73l-356 557v-557h-75v700h76l353 -568v568h75z" />
    <glyph glyph-name="O" unicode="O" horiz-adv-x="705" 
d="M643 351q0 -159 -81 -260.5t-211 -101.5t-209.5 100.5t-79.5 259.5t81 260.5t210 101.5t209.5 -100.5t80.5 -259.5zM565 349q0 130 -60.5 210.5t-154.5 80.5q-91 0 -150.5 -79.5t-59.5 -209.5t60.5 -210.5t153.5 -80.5q92 0 151.5 79.5t59.5 209.5z" />
    <glyph glyph-name="P" unicode="P" horiz-adv-x="618" 
d="M577 491q0 -103 -65 -159.5t-172 -56.5h-170v-275h-78v700h262q99 0 161 -53.5t62 -155.5zM499 488q0 42 -14 71.5t-37.5 44t-47 20t-49.5 5.5h-181v-283h171q158 0 158 142z" />
    <glyph glyph-name="Q" unicode="Q" horiz-adv-x="705" 
d="M643 351q0 -96 -32.5 -175t-90.5 -126l45 -73l-64 -38l-44 72q-47 -22 -106 -22q-130 0 -209.5 100.5t-79.5 259.5t81 260.5t210 101.5t209.5 -100.5t80.5 -259.5zM565 349q0 130 -60.5 210.5t-154.5 80.5q-91 0 -150.5 -79.5t-59.5 -209.5t60.5 -210.5t153.5 -80.5
q36 0 66 12l-57 93l64 38l56 -92q82 77 82 238z" />
    <glyph glyph-name="R" unicode="R" horiz-adv-x="650" 
d="M576 0h-90l-150 298h-166v-298h-78v700h277q97 0 157.5 -50.5t60.5 -147.5q0 -80 -44 -130.5t-121 -67.5zM366 629h-196v-261h186q153 0 153 131q0 67 -40 98.5t-103 31.5z" />
    <glyph glyph-name="S" unicode="S" horiz-adv-x="592" 
d="M522 184q0 -84 -62.5 -139.5t-169.5 -55.5q-138 0 -235 97l52 58q86 -84 186 -84q70 0 110.5 32.5t40.5 87.5q0 50 -36 82.5t-131 65.5q-113 40 -157.5 84.5t-44.5 119.5q0 84 59.5 131.5t159.5 47.5q121 0 213 -75l-50 -61q-77 65 -168 65q-69 0 -102.5 -29t-33.5 -74
q0 -46 32.5 -75t133.5 -66q116 -42 159.5 -88t43.5 -124z" />
    <glyph glyph-name="T" unicode="T" horiz-adv-x="588" 
d="M539 629h-206v-629h-78v629h-206v71h490v-71z" />
    <glyph glyph-name="U" unicode="U" horiz-adv-x="678" 
d="M591 700v-416q-3 -156 -67 -225.5t-184 -69.5q-121 0 -186 69.5t-67 225.5v416h78v-414q0 -226 179 -226q89 0 129 54t40 170v416h78z" />
    <glyph glyph-name="V" unicode="V" horiz-adv-x="668" 
d="M535 700h80l-238 -700h-86l-238 700h82l199 -611z" />
    <glyph glyph-name="W" unicode="W" horiz-adv-x="856" 
d="M723 700h76l-140 -700h-88l-144 587l-144 -587h-86l-140 700h78l107 -590l145 590h84l144 -590z" />
    <glyph glyph-name="X" unicode="X" horiz-adv-x="632" 
d="M357 366l218 -366h-88l-171 292l-173 -292h-86l218 364l-200 336h88l154 -262l154 262h86z" />
    <glyph glyph-name="Y" unicode="Y" horiz-adv-x="652" 
d="M518 700h87l-240 -422v-278h-78v277l-240 423h89l191 -343z" />
    <glyph glyph-name="Z" unicode="Z" horiz-adv-x="628" 
d="M561 68v-68h-500v68l414 564h-394v68h480v-68l-414 -564h414z" />
    <glyph glyph-name="bracketleft" unicode="[" horiz-adv-x="352" 
d="M289 -110h-194v810h194v-61h-121v-688h121v-61z" />
    <glyph glyph-name="backslash" unicode="\" horiz-adv-x="425" 
d="M399 -90h-74l-299 880h74z" />
    <glyph glyph-name="bracketright" unicode="]" horiz-adv-x="352" 
d="M257 -110h-194v61h121v688h-121v61h194v-810z" />
    <glyph glyph-name="asciicircum" unicode="^" horiz-adv-x="558" 
d="M511 382h-86l-147 236l-147 -236h-84l204 318h56z" />
    <glyph glyph-name="underscore" unicode="_" horiz-adv-x="500" 
d="M500 -153h-500v63h500v-63z" />
    <glyph glyph-name="grave" unicode="`" horiz-adv-x="500" 
d="M326 595h-59l-151 160h107z" />
    <glyph glyph-name="a" unicode="a" horiz-adv-x="539" 
d="M459 0h-75v64q-70 -75 -164 -75q-71 0 -119.5 40t-48.5 128q0 83 57.5 125.5t143.5 42.5q75 0 131 -30v62q0 116 -114 116q-74 0 -143 -40l-28 61q79 42 176 42q184 0 184 -170v-366zM384 129v106q-54 30 -135 30q-58 0 -90.5 -26.5t-32.5 -76.5q0 -57 28.5 -84.5
t78.5 -27.5q95 0 151 79z" />
    <glyph glyph-name="b" unicode="b" horiz-adv-x="559" 
d="M504 271q0 -134 -56 -208t-142 -74q-88 0 -148 70v-59h-75v687l75 42v-268q69 75 158 75q84 0 136 -66.5t52 -198.5zM430 270q0 98 -35 149.5t-98 51.5q-42 0 -77 -21q-35 -22 -62 -55v-262q52 -79 142 -79q130 0 130 216z" />
    <glyph glyph-name="c" unicode="c" horiz-adv-x="495" 
d="M400 110l45 -48q-73 -73 -169 -73q-93 0 -157 70t-64 201q0 135 67.5 205.5t158.5 70.5q95 0 166 -62l-45 -56q-58 53 -126 53q-64 0 -104.5 -54.5t-40.5 -150.5q0 -97 39.5 -154.5t108.5 -57.5q62 0 121 56z" />
    <glyph glyph-name="d" unicode="d" horiz-adv-x="559" 
d="M476 0h-75v64q-70 -75 -158 -75q-84 0 -136 66.5t-52 198.5q0 134 56 208t142 74q83 0 148 -70v221l75 42v-729zM401 130v262q-23 35 -60.5 57t-81.5 22q-130 0 -130 -216q0 -101 36.5 -151t96.5 -50q76 0 139 76z" />
    <glyph glyph-name="e" unicode="e" horiz-adv-x="540" 
d="M483 278q0 -5 -3 -41h-350q6 -85 44 -134t102 -49q43 0 74 11.5t71 38.5l35 -54q-50 -33 -91 -47t-97 -14q-39 0 -74.5 14.5t-68 45.5t-51.5 86.5t-19 129.5q0 124 61 197.5t156 73.5q100 0 155.5 -71t55.5 -187zM130 298h283q-4 80 -39.5 126.5t-102.5 46.5
q-60 0 -97.5 -44t-43.5 -129z" />
    <glyph glyph-name="f" unicode="f" horiz-adv-x="356" 
d="M309 717v-71q-26 12 -61 12q-26 0 -40 -12t-14 -43v-78h103v-63h-103v-462h-75v462h-72v63h72v72q0 129 124 129q42 0 66 -9z" />
    <glyph glyph-name="g" unicode="g" horiz-adv-x="559" 
d="M476 525v-478q0 -122 -61 -177q-58 -57 -221 -63l-19 61q140 0 183 37t43 132v27q-70 -75 -158 -75q-84 0 -136 66.5t-52 198.5q0 134 56 208t142 74q83 0 148 -70v59h75zM262 54q79 0 139 76v262q-23 35 -60.5 57t-81.5 22q-130 0 -130 -216q0 -98 35 -149.5t98 -51.5z
" />
    <glyph glyph-name="h" unicode="h" horiz-adv-x="567" 
d="M487 0h-75v307q0 85 -30 124.5t-94 39.5q-58 0 -94 -41t-36 -123v-307h-75v687l75 42v-268q48 75 145 75q86 0 135 -53.5t49 -162.5v-320z" />
    <glyph glyph-name="i" unicode="i" horiz-adv-x="251" 
d="M179 672q0 -22 -15.5 -37.5t-36.5 -15.5q-23 0 -39 15.5t-16 37.5q0 23 16 38.5t39 15.5q21 0 36.5 -16t15.5 -38zM163 0h-75v525h75v-525z" />
    <glyph glyph-name="j" unicode="j" horiz-adv-x="251" 
d="M179 672q0 -22 -15.5 -37.5t-36.5 -15.5q-23 0 -39 15.5t-16 37.5q0 23 16 38.5t39 15.5q21 0 36.5 -16t15.5 -38zM163 525v-513q0 -94 -30 -138t-125 -67l-25 56q70 21 87.5 48t17.5 102v512h75z" />
    <glyph glyph-name="k" unicode="k" horiz-adv-x="505" 
d="M463 0h-81l-133 276l-91 -125v-151h-75v687l75 42v-479l193 275h84l-138 -186z" />
    <glyph glyph-name="l" unicode="l" horiz-adv-x="251" 
d="M163 0h-75v687l75 42v-729z" />
    <glyph glyph-name="m" unicode="m" horiz-adv-x="848" 
d="M768 0h-75v307q0 89 -27.5 126.5t-85.5 37.5q-117 0 -117 -164v-307h-75v307q0 88 -28 126t-85 38q-117 0 -117 -164v-307h-75v525h75v-64q47 75 133 75q98 0 144 -90q27 44 63 67t96 23q174 0 174 -216v-320z" />
    <glyph glyph-name="n" unicode="n" horiz-adv-x="569" 
d="M487 0h-75v307q0 85 -30 124.5t-94 39.5q-58 0 -94 -41t-36 -123v-307h-75v525h75v-64q48 75 145 75q86 0 135 -53.5t49 -162.5v-320z" />
    <glyph glyph-name="o" unicode="o" horiz-adv-x="566" 
d="M511 266q0 -130 -65 -203.5t-165 -73.5t-163 71.5t-63 201.5q0 129 65 201.5t165 72.5q101 0 163.5 -70t62.5 -200zM436 264q0 102 -41 154.5t-112 52.5q-70 0 -111 -52.5t-41 -154.5q0 -101 41 -155.5t111 -54.5q71 0 112 54.5t41 155.5z" />
    <glyph glyph-name="p" unicode="p" horiz-adv-x="559" 
d="M504 271q0 -134 -56 -208t-142 -74q-88 0 -148 70v-210l-75 -42v718h75v-64q67 75 158 75q84 0 136 -66.5t52 -198.5zM430 270q0 96 -35 148.5t-98 52.5q-79 0 -139 -76v-262q52 -79 142 -79q130 0 130 216z" />
    <glyph glyph-name="q" unicode="q" horiz-adv-x="559" 
d="M476 -151l-75 -42v257q-69 -75 -158 -75q-84 0 -136 66.5t-52 198.5q0 134 56 208t142 74q83 0 148 -70v59h75v-676zM401 130v262q-23 35 -60.5 57t-81.5 22q-130 0 -130 -216q0 -98 35 -149.5t98 -51.5q79 0 139 76z" />
    <glyph glyph-name="r" unicode="r" horiz-adv-x="407" 
d="M370 523l-19 -76q-35 20 -79 20q-55 0 -84.5 -42t-29.5 -117v-308h-75v525h75v-65q18 33 53.5 54.5t76.5 21.5q51 0 82 -13z" />
    <glyph glyph-name="s" unicode="s" horiz-adv-x="467" 
d="M395 480l-42 -55q-60 47 -131 47q-41 0 -64 -17.5t-23 -47.5q0 -32 23 -51.5t93 -50.5q47 -21 68.5 -33t46 -32t33.5 -44t9 -59q0 -73 -52.5 -110.5t-127.5 -37.5q-100 0 -185 67l44 55q67 -58 143 -58q106 0 106 81q0 31 -27 53.5t-97 53.5q-84 36 -116.5 68.5
t-32.5 92.5t46 97t118 37q100 0 168 -56z" />
    <glyph glyph-name="t" unicode="t" horiz-adv-x="372" 
d="M306 72l-5 -65q-43 -18 -97 -18q-50 0 -75 27.5t-25 91.5v354h-65v63h65v162l75 42v-204h130v-63h-130v-342q0 -35 12 -49t41 -14q41 0 74 15z" />
    <glyph glyph-name="u" unicode="u" horiz-adv-x="567" 
d="M484 0h-75v64q-52 -75 -145 -75q-89 0 -136.5 55t-47.5 161v320h75v-307q0 -85 30 -124.5t94 -39.5q61 0 95.5 42.5t34.5 121.5v307h75v-525z" />
    <glyph glyph-name="v" unicode="v" horiz-adv-x="522" 
d="M482 525l-188 -525h-66l-188 525h80l142 -438l142 438h78z" />
    <glyph glyph-name="w" unicode="w" horiz-adv-x="730" 
d="M683 525l-139 -525h-69l-111 413l-111 -413h-67l-139 525h77l97 -410l111 410h68l111 -410l97 410h75z" />
    <glyph glyph-name="x" unicode="x" horiz-adv-x="504" 
d="M453 0h-83l-120 210l-121 -210h-78l162 271l-151 254h83l109 -192l110 192h78l-151 -252z" />
    <glyph glyph-name="y" unicode="y" horiz-adv-x="531" 
d="M491 525l-261 -710h-75l72 191l-187 519h79l146 -435l147 435h79z" />
    <glyph glyph-name="z" unicode="z" horiz-adv-x="492" 
d="M426 0h-372v55l287 407h-264v63h349v-55l-287 -407h287v-63z" />
    <glyph glyph-name="braceleft" unicode="{" horiz-adv-x="397" 
d="M344 -47v-63q-105 3 -154.5 55t-49.5 158v86q0 43 -12.5 57.5t-46.5 14.5h-24v70h24q34 0 46.5 15t12.5 57v89q0 106 49.5 158t154.5 55v-63q-70 -8 -100 -40.5t-30 -100.5v-70q0 -62 -13 -91t-46 -45q33 -16 46 -45.5t13 -90.5v-65q0 -68 30 -100.5t100 -40.5z" />
    <glyph glyph-name="bar" unicode="|" horiz-adv-x="304" 
d="M188 -185h-72v985h72v-985z" />
    <glyph glyph-name="braceright" unicode="}" horiz-adv-x="397" 
d="M340 264h-24q-34 0 -46.5 -14.5t-12.5 -57.5v-89q0 -106 -49.5 -158t-154.5 -55v63q70 8 100 40.5t30 100.5v70q0 61 13 90.5t46 45.5q-33 16 -46 45t-13 91v65q0 68 -30 100.5t-100 40.5v63q105 -3 154.5 -55t49.5 -158v-86q0 -43 12.5 -57.5t46.5 -14.5h24v-70z" />
    <glyph glyph-name="asciitilde" unicode="~" horiz-adv-x="552" 
d="M443 452l66 -30q-27 -66 -59 -96t-84 -30q-19 0 -37 5.5t-27.5 11t-29.5 17.5q-57 39 -86 39q-26 0 -42.5 -17.5t-34.5 -61.5l-66 30q28 65 60.5 95.5t82.5 30.5q42 0 94 -34q57 -38 86 -39q26 0 41 16t36 63z" />
    <glyph glyph-name="nbspace" unicode="&#xa0;" horiz-adv-x="260" 
 />
    <glyph glyph-name="sterling" unicode="&#xa3;" horiz-adv-x="510" 
d="M494 0h-468v70q51 61 74.5 108.5t23.5 114.5h-98v68h87q-6 16 -33 63q-34 50 -34 112q0 83 63 129t161 46q118 0 216 -87l-47 -57q-77 74 -171 74q-70 0 -107.5 -29.5t-37.5 -74.5q0 -41 32 -94q26 -46 36 -82h152v-68h-145q-4 -121 -84 -222h380v-71z" />
    <glyph glyph-name="currency" unicode="&#xa4;" horiz-adv-x="595" 
d="M327 -11q-125 0 -196.5 95t-71.5 265q0 172 73 267t198 95q72 0 119.5 -26.5t88.5 -85.5l-58 -45q-32 48 -66 68t-86 20q-74 0 -120 -47t-64 -135h269v-63h-277q-1 -15 -1 -46q0 -26 1 -39h277v-63h-270q16 -92 63 -141.5t123 -49.5q52 0 89 22t73 69l50 -44
q-45 -58 -93.5 -87t-120.5 -29z" />
    <glyph glyph-name="brokenbar" unicode="&#xa6;" horiz-adv-x="304" 
d="M116 800h72v-427h-72v427zM116 242h72v-427h-72v427z" />
    <glyph glyph-name="section" unicode="&#xa7;" horiz-adv-x="628" 
d="M573 268q0 -106 -124 -174q54 -42 54 -106q0 -69 -54 -110.5t-140 -41.5q-102 0 -193 72l46 56q38 -32 73.5 -45t85.5 -13q47 0 76 21t29 55q0 35 -31.5 60t-111.5 44q-131 34 -179.5 75.5t-48.5 117.5q0 103 124 174q-54 42 -54 106q0 69 54 110.5t140 41.5
q102 0 193 -72l-46 -56q-37 31 -72 44.5t-87 13.5q-45 0 -75 -21.5t-30 -54.5q0 -35 31.5 -60t111.5 -44q131 -33 179.5 -75t48.5 -118zM496 262q0 46 -31.5 73.5t-126.5 52.5q-62 16 -96 30q-110 -51 -110 -133q0 -46 32 -74.5t126 -51.5q62 -16 96 -30q110 51 110 133z
" />
    <glyph glyph-name="dieresis" unicode="&#xa8;" horiz-adv-x="500" 
d="M402 658q0 -22 -16.5 -38.5t-38.5 -16.5t-38.5 16.5t-16.5 38.5t16.5 39t38.5 17t38.5 -17t16.5 -39zM208 658q0 -22 -16 -38.5t-38 -16.5q-23 0 -39.5 16.5t-16.5 38.5t16.5 39t39.5 17q22 0 38 -17t16 -39z" />
    <glyph glyph-name="copyright" unicode="&#xa9;" horiz-adv-x="836" 
d="M779 350q0 -160 -102.5 -260.5t-258.5 -100.5t-258.5 100.5t-102.5 260.5t102.5 260.5t258.5 100.5t258.5 -100.5t102.5 -260.5zM730 350q0 139 -89 227t-223 88t-223 -88t-89 -227q0 -138 89.5 -226.5t222.5 -88.5q134 0 223 88.5t89 226.5zM512 457q-39 51 -93 51
q-50 0 -81.5 -44t-31.5 -113t32 -114t81 -45q55 0 99 54l39 -34q-53 -70 -139 -70q-74 0 -120 59t-46 148q0 91 47 150t121 59q83 0 134 -68z" />
    <glyph glyph-name="guillemotleft" unicode="&#xab;" horiz-adv-x="576" 
d="M446 0l-203 262l203 263h85l-203 -262l203 -263h-85zM233 0l-203 262l203 263h85l-203 -262l203 -263h-85z" />
    <glyph glyph-name="logicalnot" unicode="&#xac;" 
d="M543 107h-73v203h-393v68h466v-271z" />
    <glyph glyph-name="uni00AD" unicode="&#xad;" horiz-adv-x="322" 
d="M51 237v73h220v-73h-220z" />
    <glyph glyph-name="registered" unicode="&#xae;" horiz-adv-x="836" 
d="M779 350q0 -160 -102.5 -260.5t-258.5 -100.5t-258.5 100.5t-102.5 260.5t102.5 260.5t258.5 100.5t258.5 -100.5t102.5 -260.5zM730 350q0 139 -89 227t-223 88t-223 -88t-89 -227q0 -138 89.5 -226.5t222.5 -88.5q134 0 223 88.5t89 226.5zM578 441q0 -44 -24.5 -73.5
t-67.5 -39.5l89 -171h-62l-86 167h-86v-167h-53v399h162q57 0 92.5 -29t35.5 -86zM525 441q0 68 -78 68h-106v-135h100q84 0 84 67z" />
    <glyph glyph-name="macron" unicode="&#xaf;" horiz-adv-x="500" 
d="M386 618h-272v70h272v-70z" />
    <glyph glyph-name="degree" unicode="&#xb0;" horiz-adv-x="476" 
d="M425 520q0 -83 -53 -138t-134 -55t-134 55t-53 138q0 81 53.5 136t133.5 55q81 0 134 -55t53 -136zM359 520q0 56 -33.5 92.5t-87.5 36.5q-53 0 -87 -36.5t-34 -92.5q0 -58 34 -94.5t87 -36.5q55 0 88 36t33 95z" />
    <glyph glyph-name="plusminus" unicode="&#xb1;" 
d="M347 320v-193h-74v193h-196v68h196v193h74v-193h196v-68h-196zM77 29v68h466v-68h-466z" />
    <glyph glyph-name="acute" unicode="&#xb4;" horiz-adv-x="500" 
d="M384 755l-151 -160h-59l103 160h107z" />
    <glyph glyph-name="mu" unicode="&#xb5;" horiz-adv-x="570" 
d="M412 0v64q-53 -75 -145 -75q-70 0 -109 30v-170l-75 -42v718h75v-307q0 -164 124 -164q59 0 94.5 41t35.5 123v307h75v-525h-75z" />
    <glyph glyph-name="paragraph" unicode="&#xb6;" horiz-adv-x="688" 
d="M518 -185v817h-91v-817h-77v446h-76q-96 0 -161.5 59t-65.5 161q0 101 65.5 160t161.5 59h321v-885h-77z" />
    <glyph glyph-name="periodcentered" unicode="&#xb7;" horiz-adv-x="240" 
d="M184 367q0 -26 -19 -45t-45 -19q-27 0 -45.5 19t-18.5 45q0 27 18.5 46.5t45.5 19.5q26 0 45 -20t19 -46z" />
    <glyph glyph-name="guillemotright" unicode="&#xbb;" horiz-adv-x="576" 
d="M343 0h-85l203 262l-203 263h85l203 -262zM130 0h-85l203 262l-203 263h85l203 -262z" />
    <glyph glyph-name="divide" unicode="&#xf7;" 
d="M375 549q0 -27 -19 -46t-46 -19t-46 19t-19 46t19 47t46 20t46 -20t19 -47zM553 310h-486v68h486v-68zM375 137q0 -27 -19 -46t-46 -19t-46 19t-19 46t19 47t46 20t46 -20t19 -47z" />
    <glyph glyph-name="dotlessi" unicode="&#x131;" horiz-adv-x="251" 
d="M163 0h-75v525h75v-525z" />
    <glyph glyph-name="florin" unicode="&#x192;" horiz-adv-x="442" 
d="M440 702l-15 -71q-33 12 -91 12q-85 0 -102 -76l-9 -42h157l-13 -63h-157l-99 -462h-75l99 462h-122l13 63h122l8 39q16 78 62.5 112.5t125.5 34.5q53 0 96 -9z" />
    <glyph glyph-name="dotaccent" unicode="&#x2d9;" horiz-adv-x="500" 
d="M305 658q0 -22 -16.5 -38.5t-38.5 -16.5t-38.5 16.5t-16.5 38.5t16.5 39t38.5 17t38.5 -17t16.5 -39z" />
    <glyph glyph-name="afii10023" unicode="&#x401;" horiz-adv-x="587" 
d="M530 71v-71h-438v700h423v-71h-345v-220h279v-71h-279v-267h360zM456 808q0 -22 -16.5 -38.5t-38.5 -16.5t-38.5 16.5t-16.5 38.5t16.5 39t38.5 17t38.5 -17t16.5 -39zM262 808q0 -22 -16 -38.5t-38 -16.5q-23 0 -39.5 16.5t-16.5 38.5t16.5 39t39.5 17q22 0 38 -17
t16 -39z" />
    <glyph glyph-name="afii10051" unicode="&#x402;" horiz-adv-x="772" 
d="M717 220q0 -195 -178 -231l-21 71q64 13 93 52t29 108q0 76 -38 113.5t-121 37.5q-87 0 -173 -35v-336h-76v627h-185v73h496v-73h-235v-219q89 34 185 34q114 0 169 -58.5t55 -163.5z" />
    <glyph glyph-name="afii10052" unicode="&#x403;" horiz-adv-x="536" 
d="M170 629v-629h-78v700h411v-71h-333zM413 905l-151 -160h-59l103 160h107z" />
    <glyph glyph-name="afii10053" unicode="&#x404;" horiz-adv-x="628" 
d="M574 105q-84 -116 -229 -116q-127 0 -205 102t-78 258q0 157 80.5 259.5t205.5 102.5q140 0 223 -112l-62 -47q-36 49 -72.5 68.5t-90.5 19.5q-82 0 -137 -66.5t-67 -174.5h286v-71h-288q6 -118 63.5 -193t143.5 -75q103 0 173 92z" />
    <glyph glyph-name="afii10054" unicode="&#x405;" horiz-adv-x="592" 
d="M522 184q0 -84 -62.5 -139.5t-169.5 -55.5q-138 0 -235 97l52 58q86 -84 186 -84q70 0 110.5 32.5t40.5 87.5q0 50 -36 82.5t-131 65.5q-113 40 -157.5 84.5t-44.5 119.5q0 84 59.5 131.5t159.5 47.5q121 0 213 -75l-50 -61q-77 65 -168 65q-69 0 -102.5 -29t-33.5 -74
q0 -46 32.5 -75t133.5 -66q116 -42 159.5 -88t43.5 -124z" />
    <glyph glyph-name="afii10055" unicode="&#x406;" horiz-adv-x="272" 
d="M175 0h-78v700h78v-700z" />
    <glyph glyph-name="afii10056" unicode="&#x407;" horiz-adv-x="272" 
d="M97 0v700h78v-700h-78zM278 812q0 -22 -16.5 -38.5t-38.5 -16.5t-38.5 16.5t-16.5 38.5t16.5 39t38.5 17t38.5 -17t16.5 -39zM104 812q0 -22 -16 -38.5t-38 -16.5q-23 0 -39.5 16.5t-16.5 38.5t16.5 39t39.5 17q22 0 38 -17t16 -39z" />
    <glyph glyph-name="afii10057" unicode="&#x408;" horiz-adv-x="578" 
d="M491 700v-432q0 -279 -239 -279q-168 0 -222 169l74 25q42 -123 151 -123q84 0 121 50t37 161v429h78z" />
    <glyph glyph-name="afii10058" unicode="&#x409;" horiz-adv-x="1000" 
d="M482 0v629h-265l-10 -324q-5 -156 -52.5 -228t-131.5 -88l-22 73q63 9 96 64.5t38 178.5l15 395h410v-277h163q111 0 173.5 -55.5t62.5 -157.5q0 -104 -61.5 -157t-172.5 -53h-243zM560 352v-281h162q78 0 118 36t40 104t-40 104.5t-118 36.5h-162z" />
    <glyph glyph-name="afii10059" unicode="&#x40a;" horiz-adv-x="1036" 
d="M518 0v330h-348v-330h-78v700h78v-299h348v299h78v-277h163q111 0 173.5 -55.5t62.5 -157.5q0 -104 -61.5 -157t-172.5 -53h-243zM596 352v-281h162q78 0 118 36t40 104t-40 104.5t-118 36.5h-162z" />
    <glyph glyph-name="afii10060" unicode="&#x40b;" horiz-adv-x="765" 
d="M710 0h-78v210q0 86 -32 123.5t-118 37.5q-88 0 -174 -36v-335h-76v627h-185v73h496v-73h-235v-219q89 34 186 34q115 0 165.5 -55t50.5 -177v-210z" />
    <glyph glyph-name="afii10061" unicode="&#x40c;" horiz-adv-x="653" 
d="M608 0h-94l-210 325h-134v-325h-78v700h78v-304h129l120 220q29 54 56.5 74.5t68.5 20.5q19 0 52 -11v-75q-22 15 -46 15q-39 0 -63 -46l-121 -221zM454 905l-151 -160h-59l103 160h107z" />
    <glyph glyph-name="afii10062" unicode="&#x40e;" horiz-adv-x="605" 
d="M460 847q-7 -40 -47 -71t-110 -31t-110 31t-47 71l70 16q12 -66 87 -66t87 66zM580 700l-319 -700h-91l105 216l-250 484h91l203 -403l175 403h86z" />
    <glyph glyph-name="afii10145" unicode="&#x40f;" horiz-adv-x="688" 
d="M596 0h-215v-151h-74v151h-215v700h78v-629h348v629h78v-700z" />
    <glyph glyph-name="afii10017" unicode="&#x410;" horiz-adv-x="678" 
d="M382 700l243 -700h-82l-60 178h-289l-61 -178h-80l243 700h86zM218 249h241l-120 358z" />
    <glyph glyph-name="afii10018" unicode="&#x411;" horiz-adv-x="634" 
d="M579 210q0 -104 -61.5 -157t-172.5 -53h-253v700h444v-71h-366v-206h173q111 0 173.5 -55.5t62.5 -157.5zM170 352v-281h172q78 0 118 36t40 104t-40 104.5t-118 36.5h-172z" />
    <glyph glyph-name="afii10019" unicode="&#x412;" horiz-adv-x="626" 
d="M571 207q0 -102 -58.5 -154.5t-169.5 -52.5h-251v700h256q87 0 138.5 -44t51.5 -131q0 -107 -101 -143q134 -35 134 -175zM460 522q0 49 -29 78t-86 29h-175v-218h169q62 0 91.5 30.5t29.5 80.5zM493 203q0 65 -40 101.5t-109 36.5h-174v-270h178q145 0 145 132z" />
    <glyph glyph-name="afii10020" unicode="&#x413;" horiz-adv-x="536" 
d="M170 629v-629h-78v700h411v-71h-333z" />
    <glyph glyph-name="afii10021" unicode="&#x414;" horiz-adv-x="696" 
d="M663 -160h-73v160h-502v-160h-73v231h58q66 163 78 365l16 264h411v-629h85v-231zM500 71v558h-265l-12 -193q-13 -204 -73 -365h350z" />
    <glyph glyph-name="afii10022" unicode="&#x415;" horiz-adv-x="587" 
d="M530 71v-71h-438v700h423v-71h-345v-220h279v-71h-279v-267h360z" />
    <glyph glyph-name="afii10024" unicode="&#x416;" horiz-adv-x="956" 
d="M517 0h-78v325h-106l-194 -325h-95l227 371l-115 223q-24 46 -61 46q-26 0 -46 -15v75q31 11 52 11q39 0 67 -20.5t56 -74.5l112 -220h103v304h78v-304h103l112 220q28 54 56 74.5t67 20.5q21 0 52 -11v-75q-20 15 -46 15q-37 0 -61 -46l-115 -223l227 -371h-95l-194 325
h-106v-325z" />
    <glyph glyph-name="afii10025" unicode="&#x417;" horiz-adv-x="555" 
d="M271 400q68 0 100.5 34t32.5 89q0 50 -34.5 83.5t-101.5 33.5q-94 0 -171 -62l-47 58q94 75 218 75q107 0 160.5 -53t53.5 -134q0 -56 -29.5 -96.5t-80.5 -56.5q54 -14 91 -56.5t37 -118.5q0 -90 -62.5 -148.5t-169.5 -58.5q-66 0 -128 26t-107 71l50 56q84 -82 185 -82
q69 0 111.5 36t42.5 96q0 65 -40 101.5t-109 36.5h-122v70h120z" />
    <glyph glyph-name="afii10026" unicode="&#x418;" horiz-adv-x="688" 
d="M518 700h78v-700h-78v566l-348 -566h-78v700h78v-570z" />
    <glyph glyph-name="afii10027" unicode="&#x419;" horiz-adv-x="688" 
d="M501 847q-7 -40 -47 -71t-110 -31t-110 31t-47 71l70 16q12 -66 87 -66t87 66zM518 700h78v-700h-78v566l-348 -566h-78v700h78v-570z" />
    <glyph glyph-name="afii10028" unicode="&#x41a;" horiz-adv-x="652" 
d="M608 0h-94l-210 325h-134v-325h-78v700h78v-304h129l120 220q29 54 56.5 74.5t68.5 20.5q19 0 52 -11v-75q-22 15 -46 15q-39 0 -63 -46l-121 -221z" />
    <glyph glyph-name="afii10029" unicode="&#x41b;" horiz-adv-x="652" 
d="M560 0h-78v629h-265l-10 -324q-5 -156 -52.5 -228t-131.5 -88l-22 73q63 9 96 64.5t38 178.5l15 395h410v-700z" />
    <glyph glyph-name="afii10030" unicode="&#x41c;" horiz-adv-x="788" 
d="M696 700v-700h-75v534l-229 -552l-225 552v-534h-75v700h87l215 -545l217 545h85z" />
    <glyph glyph-name="afii10031" unicode="&#x41d;" horiz-adv-x="688" 
d="M596 0h-78v330h-348v-330h-78v700h78v-299h348v299h78v-700z" />
    <glyph glyph-name="afii10032" unicode="&#x41e;" horiz-adv-x="705" 
d="M643 351q0 -159 -81 -260.5t-211 -101.5t-209.5 100.5t-79.5 259.5t81 260.5t210 101.5t209.5 -100.5t80.5 -259.5zM565 349q0 130 -60.5 210.5t-154.5 80.5q-91 0 -150.5 -79.5t-59.5 -209.5t60.5 -210.5t153.5 -80.5q92 0 151.5 79.5t59.5 209.5z" />
    <glyph glyph-name="afii10033" unicode="&#x41f;" horiz-adv-x="688" 
d="M518 0v629h-348v-629h-78v700h504v-700h-78z" />
    <glyph glyph-name="afii10034" unicode="&#x420;" horiz-adv-x="618" 
d="M577 491q0 -103 -65 -159.5t-172 -56.5h-170v-275h-78v700h262q99 0 161 -53.5t62 -155.5zM499 488q0 42 -14 71.5t-37.5 44t-47 20t-49.5 5.5h-181v-283h171q158 0 158 142z" />
    <glyph glyph-name="afii10035" unicode="&#x421;" horiz-adv-x="628" 
d="M571 599l-62 -47q-35 47 -71.5 67.5t-91.5 20.5q-90 0 -148 -80.5t-58 -208.5q0 -127 59 -209t148 -82q103 0 173 92l54 -47q-84 -116 -229 -116q-126 0 -204.5 102.5t-78.5 257.5q0 157 80.5 259.5t205.5 102.5q140 0 223 -112z" />
    <glyph glyph-name="afii10036" unicode="&#x422;" horiz-adv-x="588" 
d="M539 629h-206v-629h-78v629h-206v71h490v-71z" />
    <glyph glyph-name="afii10037" unicode="&#x423;" horiz-adv-x="605" 
d="M580 700l-319 -700h-91l105 216l-250 484h91l203 -403l175 403h86z" />
    <glyph glyph-name="afii10038" unicode="&#x424;" horiz-adv-x="860" 
d="M391 139v422q-127 0 -189.5 -56t-62.5 -155t62.5 -155t189.5 -56zM469 561v-422q127 0 189.5 56t62.5 155t-62.5 155t-189.5 56zM469 -24h-78v92q-149 0 -240 70t-91 212t91 212t240 70v88h78v-88q149 0 240 -70t91 -212t-91 -212t-240 -70v-92z" />
    <glyph glyph-name="afii10039" unicode="&#x425;" horiz-adv-x="632" 
d="M357 366l218 -366h-88l-171 292l-173 -292h-86l218 364l-200 336h88l154 -262l154 262h86z" />
    <glyph glyph-name="afii10040" unicode="&#x426;" horiz-adv-x="714" 
d="M607 0h-515v700h78v-629h348v629h78v-629h85v-231h-74v160z" />
    <glyph glyph-name="afii10041" unicode="&#x427;" horiz-adv-x="627" 
d="M535 0h-78v326q-82 -34 -185 -34q-110 0 -163.5 52.5t-53.5 165.5v190h78v-190q0 -77 35 -112t116 -35q95 0 173 36v301h78v-700z" />
    <glyph glyph-name="afii10042" unicode="&#x428;" horiz-adv-x="944" 
d="M852 0h-760v700h78v-629h263v629h78v-629h263v629h78v-700z" />
    <glyph glyph-name="afii10043" unicode="&#x429;" horiz-adv-x="970" 
d="M863 0h-771v700h78v-629h263v629h78v-629h263v629h78v-629h85v-231h-74v160z" />
    <glyph glyph-name="afii10044" unicode="&#x42a;" horiz-adv-x="685" 
d="M167 629h-156v71h234v-277h163q111 0 173.5 -55.5t62.5 -157.5q0 -104 -61.5 -157t-172.5 -53h-243v629zM245 352v-281h162q78 0 118 36t40 104t-40 104.5t-118 36.5h-162z" />
    <glyph glyph-name="afii10045" unicode="&#x42b;" horiz-adv-x="864" 
d="M694 0v700h78v-700h-78zM92 0v700h78v-277h163q111 0 173.5 -55.5t62.5 -157.5q0 -104 -61.5 -157t-172.5 -53h-243zM170 352v-281h162q78 0 118 36t40 104t-40 104.5t-118 36.5h-162z" />
    <glyph glyph-name="afii10046" unicode="&#x42c;" horiz-adv-x="610" 
d="M92 0v700h78v-277h163q111 0 173.5 -55.5t62.5 -157.5q0 -104 -61.5 -157t-172.5 -53h-243zM170 352v-281h162q78 0 118 36t40 104t-40 104.5t-118 36.5h-162z" />
    <glyph glyph-name="afii10047" unicode="&#x42d;" horiz-adv-x="628" 
d="M54 105l54 47q70 -92 173 -92q86 0 143.5 75t63.5 193h-288v71h286q-12 108 -67 174.5t-137 66.5q-54 0 -90.5 -19.5t-72.5 -68.5l-62 47q83 112 223 112q125 0 205.5 -102.5t80.5 -259.5q0 -156 -78 -258t-205 -102q-145 0 -229 116z" />
    <glyph glyph-name="afii10048" unicode="&#x42e;" horiz-adv-x="943" 
d="M803 349q0 130 -60.5 210.5t-154.5 80.5q-91 0 -150.5 -79.5t-59.5 -209.5t60.5 -210.5t153.5 -80.5q92 0 151.5 79.5t59.5 209.5zM881 351q0 -159 -81 -260.5t-211 -101.5q-125 0 -204 93.5t-85 243.5h-129v-326h-78v700h78v-303h131q12 140 91 227t198 87
q129 0 209.5 -100.5t80.5 -259.5z" />
    <glyph glyph-name="afii10049" unicode="&#x42f;" horiz-adv-x="656" 
d="M79 502q0 97 58 147.5t153 50.5h274v-700h-78v299h-189l-148 -299h-89l157 311q-63 21 -100.5 69t-37.5 122zM157 499q0 -130 145 -130h184v260h-194q-63 0 -99 -32.5t-36 -97.5z" />
    <glyph glyph-name="afii10065" unicode="&#x430;" horiz-adv-x="539" 
d="M459 0h-75v64q-70 -75 -164 -75q-71 0 -119.5 40t-48.5 128q0 83 57.5 125.5t143.5 42.5q75 0 131 -30v62q0 116 -114 116q-74 0 -143 -40l-28 61q79 42 176 42q184 0 184 -170v-366zM384 129v106q-54 30 -135 30q-58 0 -90.5 -26.5t-32.5 -76.5q0 -57 28.5 -84.5
t78.5 -27.5q95 0 151 79z" />
    <glyph glyph-name="afii10066" unicode="&#x431;" horiz-adv-x="567" 
d="M512 259q0 -124 -63.5 -197t-162.5 -73q-97 0 -160.5 74t-63.5 194v145q0 158 83 242.5t234 84.5q42 0 98 10v-65q-47 -10 -98 -10q-131 0 -189 -69.5t-58 -179.5q21 55 64.5 82.5t99.5 27.5q96 0 156 -72.5t60 -193.5zM437 257q0 95 -40 149t-107 54q-72 0 -112.5 -53.5
t-40.5 -147.5q0 -96 41 -150.5t110 -54.5q67 0 108 56t41 147z" />
    <glyph glyph-name="afii10067" unicode="&#x432;" horiz-adv-x="541" 
d="M316 525q67 0 111 -33.5t44 -97.5q0 -85 -78 -112q38 -9 65.5 -42.5t27.5 -84.5q0 -73 -45 -114t-131 -41h-228v525h234zM396 387q0 36 -22 56.5t-63 20.5h-154v-156h152q41 0 64 21t23 58zM411 152q0 45 -27.5 70t-75.5 25h-151v-186h151q103 0 103 91z" />
    <glyph glyph-name="afii10068" unicode="&#x433;" horiz-adv-x="429" 
d="M157 462v-462h-75v525h325v-63h-250z" />
    <glyph glyph-name="afii10069" unicode="&#x434;" horiz-adv-x="577" 
d="M544 -94l-69 -35v129h-398v-94l-70 -35v192h52q48 108 59 261l14 201h343v-462h69v-157zM400 63v399h-200l-11 -138q-11 -152 -55 -261h266z" />
    <glyph glyph-name="afii10070" unicode="&#x435;" horiz-adv-x="540" 
d="M483 278q0 -5 -3 -41h-350q6 -85 44 -134t102 -49q43 0 74 11.5t71 38.5l35 -54q-50 -33 -91 -47t-97 -14q-39 0 -74.5 14.5t-68 45.5t-51.5 86.5t-19 129.5q0 124 61 197.5t156 73.5q100 0 155.5 -71t55.5 -187zM130 298h283q-4 80 -39.5 126.5t-102.5 46.5
q-60 0 -97.5 -44t-43.5 -129z" />
    <glyph glyph-name="afii10072" unicode="&#x436;" horiz-adv-x="755" 
d="M415 0h-75v246h-73l-145 -246h-89l174 288l-78 144q-22 41 -47 41q-16 0 -36 -10v63q28 10 44 10q55 0 93 -72l83 -156h74v217h75v-217h74l83 156q38 72 93 72q16 0 44 -10v-63q-20 10 -36 10q-25 0 -47 -41l-78 -144l174 -288h-89l-145 246h-73v-246z" />
    <glyph glyph-name="afii10073" unicode="&#x437;" horiz-adv-x="446" 
d="M121 310h91q51 0 75.5 23t24.5 60q0 35 -26 57t-77 22q-40 0 -67 -10.5t-59 -36.5l-42 55q68 56 168 56q89 0 133.5 -40t44.5 -101q0 -76 -84 -114q40 -12 69.5 -46t29.5 -89q0 -69 -51.5 -113t-140.5 -44q-100 0 -185 67l44 55q64 -58 141 -58q52 0 84.5 25.5t32.5 69.5
q0 47 -30.5 73t-82.5 26h-93v63z" />
    <glyph glyph-name="afii10074" unicode="&#x438;" horiz-adv-x="568" 
d="M411 525h75v-525h-75v408l-254 -408h-75v525h75v-406z" />
    <glyph glyph-name="afii10075" unicode="&#x439;" horiz-adv-x="568" 
d="M433 679q-7 -40 -44 -70.5t-105 -30.5t-105 30.5t-44 70.5l62 17q12 -70 87 -70t87 70zM411 525h75v-525h-75v408l-254 -408h-75v525h75v-406z" />
    <glyph glyph-name="afii10076" unicode="&#x43a;" horiz-adv-x="520" 
d="M487 0h-91l-154 246h-85v-246h-75v525h75v-217h86l90 158q22 38 44 54t52 16q16 0 44 -10v-63q-18 10 -36 10q-26 0 -51 -41l-84 -144z" />
    <glyph glyph-name="afii10077" unicode="&#x43b;" horiz-adv-x="544" 
d="M462 0h-75v462h-201l-8 -203q-6 -134 -42 -195.5t-109 -74.5l-19 64q48 8 72 53.5t28 152.5l11 266h343v-525z" />
    <glyph glyph-name="afii10078" unicode="&#x43c;" horiz-adv-x="659" 
d="M329 152l157 373h91v-525h-75v326q0 53 2 83q-2 -4 -7 -17.5t-10.5 -28t-11.5 -27.5l-145 -345h-1l-145 345q-6 13 -11.5 27.5t-10.5 28t-7 17.5q2 -30 2 -83v-326h-75v525h91z" />
    <glyph glyph-name="afii10079" unicode="&#x43d;" horiz-adv-x="558" 
d="M476 525v-525h-75v247h-244v-247h-75v525h75v-215h244v215h75z" />
    <glyph glyph-name="afii10080" unicode="&#x43e;" horiz-adv-x="566" 
d="M511 266q0 -130 -65 -203.5t-165 -73.5t-163 71.5t-63 201.5q0 129 65 201.5t165 72.5q101 0 163.5 -70t62.5 -200zM436 264q0 102 -41 154.5t-112 52.5q-70 0 -111 -52.5t-41 -154.5q0 -101 41 -155.5t111 -54.5q71 0 112 54.5t41 155.5z" />
    <glyph glyph-name="afii10081" unicode="&#x43f;" horiz-adv-x="558" 
d="M476 525v-525h-75v462h-244v-462h-75v525h394z" />
    <glyph glyph-name="afii10082" unicode="&#x440;" horiz-adv-x="559" 
d="M504 271q0 -134 -56 -208t-142 -74q-88 0 -148 70v-210l-75 -42v718h75v-64q67 75 158 75q84 0 136 -66.5t52 -198.5zM430 270q0 96 -35 148.5t-98 52.5q-79 0 -139 -76v-262q52 -79 142 -79q130 0 130 216z" />
    <glyph glyph-name="afii10083" unicode="&#x441;" horiz-adv-x="495" 
d="M400 110l45 -48q-73 -73 -169 -73q-93 0 -157 70t-64 201q0 135 67.5 205.5t158.5 70.5q95 0 166 -62l-45 -56q-58 53 -126 53q-64 0 -104.5 -54.5t-40.5 -150.5q0 -97 39.5 -154.5t108.5 -57.5q62 0 121 56z" />
    <glyph glyph-name="afii10084" unicode="&#x442;" horiz-adv-x="435" 
d="M255 462v-462h-75v462h-165v63h405v-63h-165z" />
    <glyph glyph-name="afii10085" unicode="&#x443;" horiz-adv-x="531" 
d="M491 525l-261 -710h-75l72 191l-187 519h79l146 -435l147 435h79z" />
    <glyph glyph-name="afii10086" unicode="&#x444;" horiz-adv-x="795" 
d="M435 56v-207l-75 -42v249q-51 -67 -130 -67q-77 0 -126 73.5t-49 208.5q0 132 46 198.5t120 66.5q83 0 139 -68v219l75 42v-261q56 68 139 68q74 0 120 -66.5t46 -198.5q0 -135 -49 -208.5t-126 -73.5q-79 0 -130 67zM130 270q0 -216 110 -216q36 0 68 21.5t52 57.5v262
q-52 76 -118 76q-54 0 -83 -52t-29 -149zM665 270q0 97 -29 149t-83 52q-66 0 -118 -76v-262q20 -36 52 -57.5t68 -21.5q110 0 110 216z" />
    <glyph glyph-name="afii10087" unicode="&#x445;" horiz-adv-x="504" 
d="M453 0h-83l-120 210l-121 -210h-78l162 271l-151 254h83l109 -192l110 192h78l-151 -252z" />
    <glyph glyph-name="afii10088" unicode="&#x446;" horiz-adv-x="578" 
d="M82 0v525h75v-462h244v462h75v-462h69v-157l-70 -35v129h-393z" />
    <glyph glyph-name="afii10089" unicode="&#x447;" horiz-adv-x="515" 
d="M433 0h-75v224q-59 -32 -136 -32q-83 0 -126 47t-43 138v148h75v-153q0 -63 26.5 -90.5t85.5 -27.5q25 0 61.5 8.5t56.5 23.5v239h75v-525z" />
    <glyph glyph-name="afii10090" unicode="&#x448;" horiz-adv-x="849" 
d="M767 0h-685v525h75v-462h230v462h75v-462h230v462h75v-525z" />
    <glyph glyph-name="afii10091" unicode="&#x449;" horiz-adv-x="869" 
d="M766 0h-684v525h75v-462h230v462h75v-462h230v462h75v-462h69v-157l-70 -35v129z" />
    <glyph glyph-name="afii10092" unicode="&#x44a;" horiz-adv-x="562" 
d="M454 164q0 48 -27.5 74.5t-79.5 26.5h-147v-204h140q114 0 114 103zM200 326h157q78 0 125 -40.5t47 -119.5t-50 -122.5t-132 -43.5h-222v464h-125v61h200v-199z" />
    <glyph glyph-name="afii10093" unicode="&#x44b;" horiz-adv-x="738" 
d="M157 326h157q78 0 125 -40.5t47 -119.5t-50 -122.5t-132 -43.5h-222v525h75v-199zM411 164q0 48 -27.5 74.5t-79.5 26.5h-147v-204h140q114 0 114 103zM581 0v525h75v-525h-75z" />
    <glyph glyph-name="afii10094" unicode="&#x44c;" horiz-adv-x="519" 
d="M157 326h157q78 0 125 -40.5t47 -119.5t-50 -122.5t-132 -43.5h-222v525h75v-199zM411 164q0 48 -27.5 74.5t-79.5 26.5h-147v-204h140q114 0 114 103z" />
    <glyph glyph-name="afii10095" unicode="&#x44d;" horiz-adv-x="495" 
d="M50 62l45 48q59 -56 121 -56q65 0 104 51t44 139h-213v63h211q-9 78 -47.5 121t-95.5 43q-68 0 -126 -53l-45 56q71 62 166 62q91 0 158.5 -70.5t67.5 -205.5q0 -131 -64 -201t-157 -70q-96 0 -169 73z" />
    <glyph glyph-name="afii10096" unicode="&#x44e;" horiz-adv-x="769" 
d="M157 309h103q14 108 75.5 167.5t152.5 59.5q100 0 163 -70t63 -200t-65 -203.5t-165 -73.5q-97 0 -159.5 67.5t-66.5 189.5h-101v-246h-75v525h75v-216zM639 264q0 102 -41 154.5t-112 52.5q-70 0 -111 -52.5t-41 -154.5q0 -101 41 -155.5t111 -54.5q71 0 112 54.5
t41 155.5z" />
    <glyph glyph-name="afii10097" unicode="&#x44f;" horiz-adv-x="536" 
d="M454 0h-75v217h-139l-122 -217h-89l134 229q-52 10 -82.5 46t-30.5 97q0 74 47.5 113.5t122.5 39.5h234v-525zM379 279v184h-150q-48 0 -75.5 -24t-27.5 -68t27.5 -68t75.5 -24h150z" />
    <glyph glyph-name="afii10071" unicode="&#x451;" horiz-adv-x="540" 
d="M483 278q0 -5 -3 -41h-350q6 -85 44 -134t102 -49q43 0 74 11.5t71 38.5l35 -54q-50 -33 -91 -47t-97 -14q-39 0 -74.5 14.5t-68 45.5t-51.5 86.5t-19 129.5q0 124 61 197.5t156 73.5q100 0 155.5 -71t55.5 -187zM130 298h283q-4 80 -39.5 126.5t-102.5 46.5
q-60 0 -97.5 -44t-43.5 -129zM423 654q0 -22 -16.5 -38.5t-38.5 -16.5t-38.5 16.5t-16.5 38.5t16.5 39t38.5 17t38.5 -17t16.5 -39zM229 654q0 -22 -16 -38.5t-38 -16.5q-23 0 -39.5 16.5t-16.5 38.5t16.5 39t39.5 17q22 0 38 -17t16 -39z" />
    <glyph glyph-name="afii10099" unicode="&#x452;" horiz-adv-x="567" 
d="M487 39q0 -188 -132 -232l-19 64q41 20 58.5 53.5t17.5 106.5v227q0 86 -30.5 125t-92.5 39q-59 0 -95 -42t-36 -122v-258h-75v578h-83v48h83v63l75 40v-103h245v-48h-245v-167q20 35 58.5 55.5t87.5 20.5q183 0 183 -223v-225z" />
    <glyph glyph-name="afii10100" unicode="&#x453;" horiz-adv-x="430" 
d="M369 755l-151 -160h-59l103 160h107zM158 462v-462h-75v525h325v-63h-250z" />
    <glyph glyph-name="afii10101" unicode="&#x454;" horiz-adv-x="495" 
d="M445 62q-73 -73 -169 -73q-93 0 -157 70t-64 201q0 135 67.5 205.5t158.5 70.5q95 0 166 -62l-45 -56q-58 53 -126 53q-57 0 -95.5 -43t-47.5 -121h211v-63h-213q5 -88 44 -139t104 -51q62 0 121 56z" />
    <glyph glyph-name="afii10102" unicode="&#x455;" horiz-adv-x="459" 
d="M395 480l-42 -55q-60 47 -131 47q-41 0 -64 -17.5t-23 -47.5q0 -32 23 -51.5t93 -50.5q47 -21 68.5 -33t46 -32t33.5 -44t9 -59q0 -73 -52.5 -110.5t-127.5 -37.5q-100 0 -185 67l44 55q67 -58 143 -58q106 0 106 81q0 31 -27 53.5t-97 53.5q-84 36 -116.5 68.5
t-32.5 92.5t46 97t118 37q100 0 168 -56z" />
    <glyph glyph-name="afii10103" unicode="&#x456;" horiz-adv-x="251" 
d="M179 672q0 -22 -15.5 -37.5t-36.5 -15.5q-23 0 -39 15.5t-16 37.5q0 23 16 38.5t39 15.5q21 0 36.5 -16t15.5 -38zM163 0h-75v525h75v-525z" />
    <glyph glyph-name="afii10104" unicode="&#x457;" horiz-adv-x="251" 
d="M88 0v525h75v-525h-75zM257 649q0 -22 -16.5 -38.5t-38.5 -16.5t-38.5 16.5t-16.5 38.5t16.5 39t38.5 17t38.5 -17t16.5 -39zM104 649q0 -22 -16 -38.5t-38 -16.5q-23 0 -39.5 16.5t-16.5 38.5t16.5 39t39.5 17q22 0 38 -17t16 -39z" />
    <glyph glyph-name="afii10105" unicode="&#x458;" horiz-adv-x="251" 
d="M179 672q0 -22 -15.5 -37.5t-36.5 -15.5q-23 0 -39 15.5t-16 37.5q0 23 16 38.5t39 15.5q21 0 36.5 -16t15.5 -38zM163 525v-513q0 -94 -30 -138t-125 -67l-25 56q70 21 87.5 48t17.5 102v512h75z" />
    <glyph glyph-name="afii10106" unicode="&#x459;" horiz-adv-x="824" 
d="M387 0v462h-201l-8 -203q-6 -134 -42 -195.5t-109 -74.5l-19 64q48 8 72 53.5t28 152.5l11 266h343v-199h157q78 0 125 -40.5t47 -119.5t-50 -122.5t-132 -43.5h-222zM716 164q0 48 -27.5 74.5t-79.5 26.5h-147v-204h140q114 0 114 103z" />
    <glyph glyph-name="afii10107" unicode="&#x45a;" horiz-adv-x="838" 
d="M401 0v247h-244v-247h-75v525h75v-215h244v215h75v-199h157q78 0 125 -40.5t47 -119.5t-50 -122.5t-132 -43.5h-222zM730 164q0 48 -27.5 74.5t-79.5 26.5h-147v-204h140q114 0 114 103z" />
    <glyph glyph-name="afii10108" unicode="&#x45b;" horiz-adv-x="567" 
d="M412 0v258q0 85 -30 124.5t-94 39.5q-58 0 -94 -41t-36 -123v-258h-75v578h-83v48h83v61l75 42v-103h245v-48h-245v-166q48 75 145 75q86 0 135 -53.5t49 -162.5v-271h-75z" />
    <glyph glyph-name="afii10109" unicode="&#x45c;" horiz-adv-x="520" 
d="M487 0h-91l-154 246h-85v-246h-75v525h75v-217h86l90 158q22 38 44 54t52 16q16 0 44 -10v-63q-18 10 -36 10q-26 0 -51 -41l-84 -144zM400 755l-151 -160h-59l103 160h107z" />
    <glyph glyph-name="afii10110" unicode="&#x45e;" horiz-adv-x="531" 
d="M415 679q-7 -40 -44 -70.5t-105 -30.5t-105 30.5t-44 70.5l62 17q12 -70 87 -70t87 70zM491 525l-261 -710h-75l72 191l-187 519h79l146 -435l147 435h79z" />
    <glyph glyph-name="afii10193" unicode="&#x45f;" horiz-adv-x="568" 
d="M486 525v-525h-166v-118l-71 -37v155h-167v525h75v-462h254v462h75z" />
    <glyph glyph-name="afii10050" unicode="&#x490;" horiz-adv-x="536" 
d="M503 629h-333v-629h-78v700h340v91l71 39v-201z" />
    <glyph glyph-name="afii10098" unicode="&#x491;" horiz-adv-x="430" 
d="M408 462h-250v-462h-75v525h262v95l63 35v-193z" />
    <glyph glyph-name="endash" unicode="&#x2013;" horiz-adv-x="422" 
d="M51 239v71h320v-71h-320z" />
    <glyph glyph-name="emdash" unicode="&#x2014;" horiz-adv-x="580" 
d="M51 239v71h478v-71h-478z" />
    <glyph glyph-name="quoteleft" unicode="&#x2018;" horiz-adv-x="252" 
d="M162 477h-102l65 223h52z" />
    <glyph glyph-name="quoteright" unicode="&#x2019;" horiz-adv-x="252" 
d="M127 477h-52l15 223h102z" />
    <glyph glyph-name="quotesinglbase" unicode="&#x201a;" horiz-adv-x="252" 
d="M127 -108h-52l15 223h102z" />
    <glyph glyph-name="quotedblleft" unicode="&#x201c;" horiz-adv-x="469" 
d="M379 477h-102l65 223h52zM162 477h-102l65 223h52z" />
    <glyph glyph-name="quotedblright" unicode="&#x201d;" horiz-adv-x="469" 
d="M344 477h-52l15 223h102zM127 477h-52l15 223h102z" />
    <glyph glyph-name="quotedblbase" unicode="&#x201e;" horiz-adv-x="469" 
d="M344 -108h-52l15 223h102zM127 -108h-52l15 223h102z" />
    <glyph glyph-name="dagger" unicode="&#x2020;" horiz-adv-x="573" 
d="M321 398v-498h-69v498h-197v66h197v236h69v-236h197v-66h-197z" />
    <glyph glyph-name="daggerdbl" unicode="&#x2021;" horiz-adv-x="573" 
d="M321 136v-236h-69v236h-197v65h197v198h-197v65h197v236h69v-236h197v-65h-197v-198h197v-65h-197z" />
    <glyph glyph-name="bullet" unicode="&#x2022;" horiz-adv-x="401" 
d="M365 367l-298 -174v348z" />
    <glyph glyph-name="ellipsis" unicode="&#x2026;" horiz-adv-x="720" 
d="M664 53q0 -26 -19 -45t-45 -19q-27 0 -45.5 19t-18.5 45q0 27 18.5 46.5t45.5 19.5q25 0 44.5 -20t19.5 -46zM424 53q0 -26 -19 -45t-45 -19t-45 19t-19 45t19 46t45 20t45 -20t19 -46zM184 53q0 -26 -19 -45t-45 -19q-27 0 -45.5 19t-18.5 45q0 27 18.5 46.5t45.5 19.5
q25 0 44.5 -20t19.5 -46z" />
    <glyph glyph-name="perthousand" unicode="&#x2030;" horiz-adv-x="1345" 
d="M300 0h-73l435 700h73zM903 207q0 -96 -45.5 -157t-118.5 -61t-117 60t-44 156q0 98 44.5 158.5t118.5 60.5q75 0 118.5 -60t43.5 -157zM834 205q0 70 -25.5 114.5t-68.5 44.5q-41 0 -67 -43t-26 -114q0 -70 25.5 -114t68.5 -44q42 0 67.5 45.5t25.5 110.5zM1300 207
q0 -96 -45.5 -157t-118.5 -61t-117 60t-44 156q0 98 44.5 158.5t118.5 60.5q75 0 118.5 -60t43.5 -157zM1231 205q0 70 -25.5 114.5t-68.5 44.5q-41 0 -67 -43t-26 -114q0 -70 25.5 -114t68.5 -44q42 0 67.5 45.5t25.5 110.5zM385 494q0 -96 -45.5 -157t-118.5 -61
t-117 59.5t-44 156.5q0 99 44 159t119 60t118.5 -60t43.5 -157zM316 492q0 70 -25.5 114.5t-68.5 44.5q-42 0 -67.5 -43t-25.5 -114t25.5 -114.5t68.5 -43.5q42 0 67.5 45.5t25.5 110.5z" />
    <glyph glyph-name="guilsinglleft" unicode="&#x2039;" horiz-adv-x="363" 
d="M233 0l-203 262l203 263h85l-203 -262l203 -263h-85z" />
    <glyph glyph-name="guilsinglright" unicode="&#x203a;" horiz-adv-x="363" 
d="M130 0h-85l203 262l-203 263h85l203 -262z" />
    <glyph glyph-name="Euro" unicode="&#x20ac;" horiz-adv-x="549" 
d="M329 -11q-97 0 -158.5 68t-79.5 193h-77v62h71q-1 6 -1 41q0 36 1 44h-71v62h78q21 124 83.5 188t156.5 64q69 0 110.5 -28t80.5 -92l-59 -40q-32 53 -59 72.5t-75 19.5q-61 0 -104.5 -45t-58.5 -139h243v-62h-250q-1 -15 -1 -46q0 -27 1 -39h250v-62h-244
q9 -58 28 -98.5t44 -60t47.5 -27t46.5 -7.5q48 0 77 20.5t63 72.5l54 -38q-40 -62 -83.5 -92.5t-113.5 -30.5z" />
    <glyph glyph-name="afii61352" unicode="&#x2116;" horiz-adv-x="1091" 
d="M1006 539q0 -68 -47 -115.5t-116 -47.5t-115.5 47.5t-46.5 115.5t46.5 114.5t115.5 46.5t116 -46.5t47 -114.5zM937 539q0 45 -25.5 73t-68.5 28t-68 -28t-25 -73q0 -46 25 -74.5t68 -28.5t68.5 28.5t25.5 74.5zM681 256v60h325v-60h-325zM596 0h-73l-356 557v-557h-75
v700h76l353 -568v568h75v-700z" />
    <glyph glyph-name="trademark" unicode="&#x2122;" horiz-adv-x="762" 
d="M186 658v-357h-48v357h-116v42h280v-42h-116zM672 301v298l-129 -309l-126 311v-300h-45v399h52l120 -306l122 306h51v-399h-45z" />
    <glyph glyph-name="Delta" unicode="&#x2206;" horiz-adv-x="686" 
d="M639 0h-592l255 700h84zM531 71l-188 539l-189 -539h377z" />
    <glyph glyph-name="radical" unicode="&#x221a;" horiz-adv-x="580" 
d="M535 700l-264 -700h-70l-155 340h80l109 -254l225 614h75z" />
    <glyph glyph-name="infinity" unicode="&#x221e;" horiz-adv-x="947" 
d="M313 578q111 0 163 -87q46 87 161 87q83 0 137.5 -58t54.5 -154q0 -103 -54 -161t-141 -58q-114 0 -163 90q-49 -90 -161 -90q-83 0 -137.5 59.5t-54.5 155.5t56.5 156t138.5 60zM442 364q0 75 -33.5 114.5t-91.5 39.5t-92 -41t-34 -113q0 -73 35.5 -115t94.5 -42
q47 0 81 28.5t43 83.5q-3 21 -3 45zM505 366q0 -159 126 -159q59 0 92.5 42t33.5 115q0 72 -36 113t-95 41q-47 0 -79.5 -28t-44.5 -83q3 -39 3 -41z" />
    <glyph glyph-name="approxequal" unicode="&#x2248;" 
d="M401 383q-48 0 -100 34q-43 31 -73 31q-24 0 -40 -16t-19 -46h-68q0 61 37.5 95.5t80.5 34.5q38 3 95 -31.5t78 -33.5q24 0 40 16.5t19 45.5h68q0 -61 -37.5 -95.5t-80.5 -34.5zM401 167q-48 0 -100 34q-44 31 -73 31q-24 0 -40 -16.5t-19 -45.5h-68q0 61 37.5 95.5
t80.5 34.5q30 3 62.5 -14t61.5 -34.5t49 -16.5q24 0 40 16.5t19 45.5h68q0 -61 -37.5 -95.5t-80.5 -34.5z" />
    <glyph glyph-name="notequal" unicode="&#x2260;" 
d="M440 614l-43 -126h122v-70h-144l-50 -148h194v-70h-219l-44 -131h-73l44 131h-125v70h148l50 148h-198v70h221l44 126h73z" />
    <glyph glyph-name="lessequal" unicode="&#x2264;" 
d="M440 122l-258 218v68l258 218v-93l-199 -158l199 -158v-95zM440 29h-260v68h260v-68z" />
    <glyph glyph-name="greaterequal" unicode="&#x2265;" 
d="M438 340l-259 -218v95l200 158l-200 158v93l259 -218v-68zM440 29h-261v68h261v-68z" />
    <glyph glyph-name="hyphenminus" horiz-adv-x="322" 
d="M51 237v73h220v-73h-220z" />
  </font>
</defs>
</svg>
